<svg xmlns="http://www.w3.org/2000/svg" viewBox="0 0 720 900" role="img" aria-labelledby="title desc">
  <title id="title">Madhava and the tired elder</title><desc id="desc">Temporary original illustration of friends gathered together in a village meeting place.</desc>
  <rect width="720" height="900" fill="#f4e3b7"/><circle cx="530" cy="170" r="95" fill="#c7893f" opacity=".34"/>
  <path d="M0 640 Q160 500 320 590 T720 580 V900 H0Z" fill="#c7893f" opacity=".3"/>
  <path d="M0 720 Q180 660 360 720 T720 700 V900 H0Z" fill="#245f5b" opacity=".16"/>
  <g fill="#245f5b"><circle cx="260" cy="425" r="58"/><circle cx="460" cy="425" r="58"/><path d="M170 650q15-165 90-165t90 165Z"/><path d="M370 650q15-165 90-165t90 165Z"/></g><path d="M295 505 Q360 555 425 505" fill="none" stroke="#c7893f" stroke-width="18" stroke-linecap="round"/>
  <rect x="42" y="42" width="636" height="816" rx="22" fill="none" stroke="#245f5b" stroke-width="3" opacity=".22"/>
  <text x="52" y="790" fill="#245f5b" font-family="Georgia,serif" font-size="34">Madhava and the tired elder</text>
  <text x="54" y="828" fill="#245f5b" opacity=".72" font-family="Arial,sans-serif" font-size="16" letter-spacing="3">TEMPORARY LEELA ARTWORK</text>
</svg>
