<svg xmlns="http://www.w3.org/2000/svg" viewBox="0 0 720 900" role="img" aria-labelledby="title desc">
  <title id="title">Hari and the broken toy</title><desc id="desc">Temporary original illustration of a peacock feather and village path in gentle Vrindavan.</desc>
  <rect width="720" height="900" fill="#eadcc5"/><circle cx="601" cy="170" r="95" fill="#ad8151" opacity=".34"/>
  <path d="M0 611 Q231 491 462 599 T720 580 V900 H0Z" fill="#ad8151" opacity=".3"/>
  <path d="M0 720 Q180 676 360 720 T720 700 V900 H0Z" fill="#356d65" opacity=".16"/>
  <g transform="translate(360 500)"><path d="M0-210C-110-165-145-35-50 55 35-15 80-110 0-210Z" fill="#356d65"/><path d="M-30 30C-150 55-175 180-75 230 15 170 40 85-30 30Z" fill="#ad8151"/><circle cx="-18" cy="-120" r="34" fill="#ad8151"/><circle cx="-18" cy="-120" r="15" fill="#356d65"/></g>
  <rect x="42" y="42" width="636" height="816" rx="22" fill="none" stroke="#356d65" stroke-width="3" opacity=".22"/>
  <text x="52" y="790" fill="#356d65" font-family="Georgia,serif" font-size="34">Hari and the broken toy</text>
  <text x="54" y="828" fill="#356d65" opacity=".72" font-family="Arial,sans-serif" font-size="16" letter-spacing="3">TEMPORARY LEELA ARTWORK</text>
</svg>
