<svg xmlns="http://www.w3.org/2000/svg" viewBox="0 0 720 900" role="img" aria-labelledby="title desc">
  <title id="title">Shyam and the tangled garland</title><desc id="desc">Ancient book style miniature painting of lotus flowers and a garland in a flowering grove.</desc>
  <defs><filter id="paper"><feTurbulence baseFrequency=".018" numOctaves="3" seed="83"/><feColorMatrix type="saturate" values=".14"/><feBlend mode="multiply" in2="SourceGraphic"/></filter><pattern id="vine" width="42" height="42" patternUnits="userSpaceOnUse"><path d="M4 26c14-2 16-15 34-13" fill="none" stroke="#9f783d" stroke-width="2" opacity=".42"/><circle cx="15" cy="20" r="3" fill="#776d89" opacity=".65"/><circle cx="30" cy="13" r="2.5" fill="#d2a34f" opacity=".38"/></pattern></defs>
  <rect width="720" height="900" fill="#efe3c4"/><rect x="24" y="24" width="672" height="852" rx="18" fill="#e3dce8" filter="url(#paper)"/>
  <rect x="45" y="45" width="630" height="810" rx="12" fill="none" stroke="#9f783d" stroke-width="8" opacity=".68"/><rect x="66" y="66" width="588" height="768" fill="none" stroke="url(#vine)" stroke-width="18" opacity=".78"/>
  <rect x="93" y="104" width="534" height="626" rx="8" fill="#fff7dc" stroke="#9f783d" stroke-width="4"/>
  <circle cx="569" cy="190" r="70" fill="#776d89" opacity=".36"/><path d="M93 553 Q199 435 398 547 T627 520 V730 H93Z" fill="#776d89" opacity=".34"/>
  <path d="M93 640 Q226 639 360 646 T627 626 V730 H93Z" fill="#d2a34f" opacity=".18"/>
  <g transform="translate(0 -20) scale(.84) translate(68 86)"><g fill="#776d89" transform="translate(360 500)"><ellipse cx="0" cy="-115" rx="48" ry="120" transform="rotate(0)" opacity="0.62"/><ellipse cx="0" cy="-115" rx="48" ry="120" transform="rotate(45)" opacity="0.74"/><ellipse cx="0" cy="-115" rx="48" ry="120" transform="rotate(90)" opacity="0.86"/><ellipse cx="0" cy="-115" rx="48" ry="120" transform="rotate(135)" opacity="0.62"/><ellipse cx="0" cy="-115" rx="48" ry="120" transform="rotate(180)" opacity="0.74"/><ellipse cx="0" cy="-115" rx="48" ry="120" transform="rotate(225)" opacity="0.86"/><ellipse cx="0" cy="-115" rx="48" ry="120" transform="rotate(270)" opacity="0.62"/><ellipse cx="0" cy="-115" rx="48" ry="120" transform="rotate(315)" opacity="0.74"/><circle r="66" fill="#d2a34f"/></g></g>
  <path d="M158 742h404" stroke="#9f783d" stroke-width="3" opacity=".42"/><text x="360" y="785" fill="#d2a34f" font-family="Georgia,serif" font-size="32" text-anchor="middle">Shyam and the tangled garland</text>
  <text x="360" y="818" fill="#d2a34f" opacity=".7" font-family="Arial,sans-serif" font-size="13" text-anchor="middle" letter-spacing="3">LEELA MANUSCRIPT MINIATURE</text>
</svg>
